<?xml version="1.0" encoding="utf-8"?>
<!-- Generator: Adobe Illustrator 23.0.0, SVG Export Plug-In . SVG Version: 6.00 Build 0)  -->
<svg version="1.1" id="Layer_1" xmlns="http://www.w3.org/2000/svg" xmlns:xlink="http://www.w3.org/1999/xlink" x="0px" y="0px"
	 width="366px" height="141.1px" viewBox="0 0 366 141.1" style="enable-background:new 0 0 366 141.1;" xml:space="preserve">
<style type="text/css">
	.st0{fill:#2FA0C6;}
</style>
<g>
	<g>
		<path class="st0" d="M71,12.6c32.3,0,58.5,26.3,58.5,58.5s-26.3,58.5-58.5,58.5s-58.5-26.3-58.5-58.5S38.8,12.6,71,12.6 M71,4.7
			C34.4,4.7,4.6,34.5,4.6,71.2c0,36.7,29.7,66.4,66.4,66.4c36.7,0,66.4-29.7,66.4-66.4C137.5,34.5,107.7,4.7,71,4.7L71,4.7z"/>
		<g>
			<g>
				<path class="st0" d="M150.3,92l26.3-38.7h-22.5V46H189v2.8l-25.6,37.3H189v7.3l-38.7,0.1V92z"/>
				<path class="st0" d="M211.9,91.3c-3.6-2.1-6.4-5.1-8.4-8.9c-2-3.8-3-8-3-12.7s1-9,3.1-12.8c2.1-3.8,4.9-6.8,8.4-9
					c3.6-2.2,7.6-3.3,12.1-3.3c4.5,0,8.5,1.1,12.1,3.2c3.6,2.1,6.4,5.1,8.4,9c2,3.8,3,8.1,3,12.8s-1,9-3,12.8
					c-2,3.8-4.8,6.8-8.4,8.9c-3.6,2.1-7.6,3.2-12.1,3.2S215.5,93.4,211.9,91.3z M235.5,82.6c2.9-3.3,4.3-7.6,4.3-13
					c0-5.4-1.4-9.8-4.3-13.1c-2.9-3.3-6.7-4.9-11.4-4.9c-3.1,0-5.8,0.8-8.2,2.3c-2.4,1.5-4.3,3.6-5.6,6.4c-1.3,2.7-2,5.8-2,9.4
					c0,5.4,1.5,9.7,4.4,13c2.9,3.3,6.7,4.9,11.5,4.9C228.9,87.5,232.7,85.9,235.5,82.6z"/>
				<path class="st0" d="M260.9,54c-0.6-1.8-1.7-3.4-3.4-4.8l5-4.7c2.6,1.5,4.5,4,5.8,7.6c4.1-4.9,9.3-7.4,15.4-7.4
					c5,0,9,1.4,11.9,4.1c2.9,2.7,4.4,6.7,4.4,11.8v33.1l-7.8,0.1V61.6c0-3.1-0.7-5.5-2-7.3c-1.3-1.8-3.7-2.7-7-2.7
					c-2.9,0-5.4,0.7-7.3,2c-2,1.4-4.1,3.6-6.4,6.6v33.4h-7.8V60C261.8,57.8,261.5,55.8,260.9,54z"/>
				<path class="st0" d="M325.3,91.3c-3.6-2.1-6.4-5.1-8.4-8.9c-2-3.8-3-8-3-12.7s1-9,3.1-12.8c2.1-3.8,4.9-6.8,8.4-9
					c3.6-2.2,7.6-3.3,12.1-3.3s8.5,1.1,12.1,3.2c3.6,2.1,6.4,5.1,8.4,9c2,3.8,3,8.1,3,12.8s-1,9-3,12.8c-2,3.8-4.8,6.8-8.4,8.9
					c-3.6,2.1-7.6,3.2-12.1,3.2S328.9,93.4,325.3,91.3z M348.9,82.6c2.9-3.3,4.3-7.6,4.3-13c0-5.4-1.4-9.8-4.3-13.1
					c-2.9-3.3-6.7-4.9-11.4-4.9c-3.1,0-5.8,0.8-8.2,2.3c-2.4,1.5-4.3,3.6-5.6,6.4c-1.3,2.7-2,5.8-2,9.4c0,5.4,1.5,9.7,4.4,13
					c2.9,3.3,6.7,4.9,11.5,4.9C342.2,87.5,346,85.9,348.9,82.6z"/>
			</g>
		</g>
		<g>
			<path class="st0" d="M58.9,68.7L58.9,68.7c-0.1-0.1-0.3-0.2-0.4-0.2c3.4-1.9,5.1-4.9,5.1-9c0-2.7-0.8-5.2-2.3-7.3
				c-1.5-2.1-3.6-3.7-6.2-4.7c-1.5-0.6-3.5-0.9-5.7-0.9H34v46.2l4.6,0.5c2,0.2,5.2,0.3,9.6,0.3c3.2,0,5.9-0.3,7.8-0.9
				c3-1,5.3-2.6,7-5c1.6-2.3,2.5-5,2.5-7.8C65.5,75.1,63.3,71.3,58.9,68.7z M40.9,65.7V53.3l9.3,0c2.2,0.2,3.8,0.7,4.9,1.8
				c1.1,1,1.6,2.4,1.6,4.2c0,2.1-0.6,3.7-2,4.8c-1.3,1.1-3.2,1.7-5.4,1.7H40.9z M58.7,80.1c0,2.4-0.8,4.1-2.4,5.4
				c-1.7,1.3-4.2,1.9-7.3,1.9L40.9,87V72.3h8.9c2.9,0,5.1,0.7,6.6,2.2C57.9,75.9,58.7,77.7,58.7,80.1z"/>
			<path class="st0" d="M96,46.7l-0.2-0.5h-3.2l-19.5,47h7.3L86.3,79h15.8l6.1,14.2h7.3L96,46.7z M99.4,72.6H88.9l5-12.8l0.2-0.6
				L99.4,72.6z"/>
		</g>
	</g>
</g>
</svg>
